<mxfile host="Electron" modified="2024-08-22T06:47:39.584Z" agent="Mozilla/5.0 (X11; Linux x86_64) AppleWebKit/537.36 (KHTML, like Gecko) draw.io/24.6.4 Chrome/124.0.6367.207 Electron/30.0.6 Safari/537.36" etag="Sk_a_HZYtD0G-_yNi_e6" version="24.6.4" type="device">
  <diagram name="Page-1" id="7inHc9Q6Ccn756RbUHnm">
    <mxGraphModel dx="1434" dy="835" grid="1" gridSize="10" guides="1" tooltips="1" connect="1" arrows="1" fold="1" page="1" pageScale="1" pageWidth="850" pageHeight="1100" math="0" shadow="0">
      <root>
        <mxCell id="0" />
        <mxCell id="1" parent="0" />
        <mxCell id="wIZ43N2knN1_QpdRfwYL-1" value="ska_server" style="shape=umlFrame;whiteSpace=wrap;html=1;pointerEvents=0;" parent="1" vertex="1">
          <mxGeometry x="40" y="180" width="720" height="370" as="geometry" />
        </mxCell>
        <mxCell id="wIZ43N2knN1_QpdRfwYL-5" value="repos" style="shape=module;align=left;spacingLeft=20;align=center;verticalAlign=top;whiteSpace=wrap;html=1;" parent="1" vertex="1">
          <mxGeometry x="480" y="290" width="110" height="50" as="geometry" />
        </mxCell>
        <mxCell id="_1hHCrO5CZwxLzsTIWwX-1" value="nn_model" style="shape=module;align=left;spacingLeft=20;align=center;verticalAlign=top;whiteSpace=wrap;html=1;" parent="1" vertex="1">
          <mxGeometry x="480" y="385" width="110" height="50" as="geometry" />
        </mxCell>
        <mxCell id="_1hHCrO5CZwxLzsTIWwX-2" value="entities" style="shape=module;align=left;spacingLeft=20;align=center;verticalAlign=top;whiteSpace=wrap;html=1;" parent="1" vertex="1">
          <mxGeometry x="480" y="200" width="110" height="50" as="geometry" />
        </mxCell>
        <mxCell id="wpWViin_Y6ipoAt1LUYJ-13" value="" style="edgeStyle=orthogonalEdgeStyle;rounded=0;orthogonalLoop=1;jettySize=auto;html=1;" parent="1" source="_1hHCrO5CZwxLzsTIWwX-7" target="_1hHCrO5CZwxLzsTIWwX-8" edge="1">
          <mxGeometry relative="1" as="geometry" />
        </mxCell>
        <mxCell id="_1hHCrO5CZwxLzsTIWwX-7" value="seaorm lib" style="shape=module;align=left;spacingLeft=20;align=center;verticalAlign=top;whiteSpace=wrap;html=1;" parent="1" vertex="1">
          <mxGeometry x="630" y="250" width="110" height="50" as="geometry" />
        </mxCell>
        <mxCell id="_1hHCrO5CZwxLzsTIWwX-8" value="ska_llm" style="shape=module;align=left;spacingLeft=20;align=center;verticalAlign=top;whiteSpace=wrap;html=1;" parent="1" vertex="1">
          <mxGeometry x="630" y="355" width="110" height="50" as="geometry" />
        </mxCell>
        <mxCell id="wpWViin_Y6ipoAt1LUYJ-4" style="edgeStyle=orthogonalEdgeStyle;rounded=0;orthogonalLoop=1;jettySize=auto;html=1;entryX=0;entryY=0.5;entryDx=0;entryDy=0;dashed=1;" parent="1" source="wpWViin_Y6ipoAt1LUYJ-2" target="wpWViin_Y6ipoAt1LUYJ-3" edge="1">
          <mxGeometry relative="1" as="geometry">
            <Array as="points">
              <mxPoint x="160" y="365" />
              <mxPoint x="160" y="260" />
            </Array>
          </mxGeometry>
        </mxCell>
        <mxCell id="BwYgaTEa_GSQwbeDpP3s-2" style="edgeStyle=orthogonalEdgeStyle;rounded=0;orthogonalLoop=1;jettySize=auto;html=1;entryX=0;entryY=0.5;entryDx=0;entryDy=0;dashed=1;" edge="1" parent="1" source="wpWViin_Y6ipoAt1LUYJ-2" target="BwYgaTEa_GSQwbeDpP3s-1">
          <mxGeometry relative="1" as="geometry">
            <Array as="points">
              <mxPoint x="160" y="365" />
              <mxPoint x="160" y="425" />
            </Array>
          </mxGeometry>
        </mxCell>
        <mxCell id="BwYgaTEa_GSQwbeDpP3s-6" style="edgeStyle=orthogonalEdgeStyle;rounded=0;orthogonalLoop=1;jettySize=auto;html=1;dashed=1;" edge="1" parent="1" source="wpWViin_Y6ipoAt1LUYJ-2" target="BwYgaTEa_GSQwbeDpP3s-3">
          <mxGeometry relative="1" as="geometry" />
        </mxCell>
        <mxCell id="BwYgaTEa_GSQwbeDpP3s-7" value="uses" style="edgeLabel;html=1;align=center;verticalAlign=middle;resizable=0;points=[];" vertex="1" connectable="0" parent="BwYgaTEa_GSQwbeDpP3s-6">
          <mxGeometry x="-0.16" y="-3" relative="1" as="geometry">
            <mxPoint as="offset" />
          </mxGeometry>
        </mxCell>
        <mxCell id="wpWViin_Y6ipoAt1LUYJ-2" value="route_api" style="ellipse;whiteSpace=wrap;html=1;" parent="1" vertex="1">
          <mxGeometry x="50" y="345" width="90" height="40" as="geometry" />
        </mxCell>
        <mxCell id="BwYgaTEa_GSQwbeDpP3s-8" style="edgeStyle=orthogonalEdgeStyle;rounded=0;orthogonalLoop=1;jettySize=auto;html=1;entryX=0;entryY=0.5;entryDx=0;entryDy=0;dashed=1;" edge="1" parent="1" source="wpWViin_Y6ipoAt1LUYJ-3" target="BwYgaTEa_GSQwbeDpP3s-5">
          <mxGeometry relative="1" as="geometry" />
        </mxCell>
        <mxCell id="BwYgaTEa_GSQwbeDpP3s-16" style="edgeStyle=orthogonalEdgeStyle;rounded=0;orthogonalLoop=1;jettySize=auto;html=1;entryX=0.5;entryY=0;entryDx=0;entryDy=0;dashed=1;" edge="1" parent="1" source="wpWViin_Y6ipoAt1LUYJ-3" target="BwYgaTEa_GSQwbeDpP3s-3">
          <mxGeometry relative="1" as="geometry">
            <Array as="points">
              <mxPoint x="200" y="400" />
              <mxPoint x="95" y="400" />
            </Array>
          </mxGeometry>
        </mxCell>
        <mxCell id="wpWViin_Y6ipoAt1LUYJ-3" value="route_auth" style="ellipse;whiteSpace=wrap;html=1;" parent="1" vertex="1">
          <mxGeometry x="170" y="240" width="110" height="40" as="geometry" />
        </mxCell>
        <mxCell id="wpWViin_Y6ipoAt1LUYJ-10" value="utils" style="shape=module;align=left;spacingLeft=20;align=center;verticalAlign=top;whiteSpace=wrap;html=1;" parent="1" vertex="1">
          <mxGeometry x="480" y="480" width="110" height="50" as="geometry" />
        </mxCell>
        <mxCell id="wpWViin_Y6ipoAt1LUYJ-17" style="edgeStyle=orthogonalEdgeStyle;rounded=0;orthogonalLoop=1;jettySize=auto;html=1;entryX=0;entryY=0;entryDx=0;entryDy=15;entryPerimeter=0;" parent="1" source="_1hHCrO5CZwxLzsTIWwX-2" target="_1hHCrO5CZwxLzsTIWwX-7" edge="1">
          <mxGeometry relative="1" as="geometry">
            <Array as="points">
              <mxPoint x="610" y="240" />
              <mxPoint x="610" y="265" />
            </Array>
          </mxGeometry>
        </mxCell>
        <mxCell id="wpWViin_Y6ipoAt1LUYJ-18" style="edgeStyle=orthogonalEdgeStyle;rounded=0;orthogonalLoop=1;jettySize=auto;html=1;entryX=0.082;entryY=0.492;entryDx=0;entryDy=0;entryPerimeter=0;" parent="1" source="_1hHCrO5CZwxLzsTIWwX-1" target="_1hHCrO5CZwxLzsTIWwX-8" edge="1">
          <mxGeometry relative="1" as="geometry">
            <Array as="points">
              <mxPoint x="610" y="415" />
              <mxPoint x="610" y="380" />
            </Array>
          </mxGeometry>
        </mxCell>
        <mxCell id="wpWViin_Y6ipoAt1LUYJ-19" style="edgeStyle=orthogonalEdgeStyle;rounded=0;orthogonalLoop=1;jettySize=auto;html=1;entryX=0;entryY=0;entryDx=0;entryDy=35;entryPerimeter=0;" parent="1" source="_1hHCrO5CZwxLzsTIWwX-1" target="_1hHCrO5CZwxLzsTIWwX-7" edge="1">
          <mxGeometry relative="1" as="geometry">
            <Array as="points">
              <mxPoint x="610" y="415" />
              <mxPoint x="610" y="285" />
            </Array>
          </mxGeometry>
        </mxCell>
        <mxCell id="wpWViin_Y6ipoAt1LUYJ-20" style="edgeStyle=orthogonalEdgeStyle;rounded=0;orthogonalLoop=1;jettySize=auto;html=1;entryX=0.084;entryY=0.494;entryDx=0;entryDy=0;entryPerimeter=0;" parent="1" source="wIZ43N2knN1_QpdRfwYL-5" target="_1hHCrO5CZwxLzsTIWwX-7" edge="1">
          <mxGeometry relative="1" as="geometry">
            <Array as="points">
              <mxPoint x="600" y="325" />
              <mxPoint x="600" y="275" />
            </Array>
          </mxGeometry>
        </mxCell>
        <mxCell id="BwYgaTEa_GSQwbeDpP3s-12" style="edgeStyle=orthogonalEdgeStyle;rounded=0;orthogonalLoop=1;jettySize=auto;html=1;entryX=0;entryY=0.5;entryDx=0;entryDy=0;dashed=1;" edge="1" parent="1" source="BwYgaTEa_GSQwbeDpP3s-1" target="BwYgaTEa_GSQwbeDpP3s-9">
          <mxGeometry relative="1" as="geometry">
            <Array as="points">
              <mxPoint x="290" y="425" />
              <mxPoint x="290" y="350" />
            </Array>
          </mxGeometry>
        </mxCell>
        <mxCell id="BwYgaTEa_GSQwbeDpP3s-13" style="edgeStyle=orthogonalEdgeStyle;rounded=0;orthogonalLoop=1;jettySize=auto;html=1;entryX=0;entryY=0.5;entryDx=0;entryDy=0;dashed=1;" edge="1" parent="1" source="BwYgaTEa_GSQwbeDpP3s-1" target="BwYgaTEa_GSQwbeDpP3s-10">
          <mxGeometry relative="1" as="geometry" />
        </mxCell>
        <mxCell id="BwYgaTEa_GSQwbeDpP3s-14" style="edgeStyle=orthogonalEdgeStyle;rounded=0;orthogonalLoop=1;jettySize=auto;html=1;entryX=0;entryY=0.5;entryDx=0;entryDy=0;dashed=1;" edge="1" parent="1" source="BwYgaTEa_GSQwbeDpP3s-1" target="BwYgaTEa_GSQwbeDpP3s-11">
          <mxGeometry relative="1" as="geometry">
            <Array as="points">
              <mxPoint x="290" y="425" />
              <mxPoint x="290" y="500" />
            </Array>
          </mxGeometry>
        </mxCell>
        <mxCell id="BwYgaTEa_GSQwbeDpP3s-15" style="edgeStyle=orthogonalEdgeStyle;rounded=0;orthogonalLoop=1;jettySize=auto;html=1;entryX=0.5;entryY=0;entryDx=0;entryDy=0;dashed=1;" edge="1" parent="1" source="BwYgaTEa_GSQwbeDpP3s-1" target="BwYgaTEa_GSQwbeDpP3s-3">
          <mxGeometry relative="1" as="geometry">
            <Array as="points">
              <mxPoint x="95" y="425" />
            </Array>
          </mxGeometry>
        </mxCell>
        <mxCell id="BwYgaTEa_GSQwbeDpP3s-1" value="route_assistant" style="ellipse;whiteSpace=wrap;html=1;" vertex="1" parent="1">
          <mxGeometry x="170" y="405" width="110" height="40" as="geometry" />
        </mxCell>
        <mxCell id="BwYgaTEa_GSQwbeDpP3s-3" value="auth_middleware" style="ellipse;whiteSpace=wrap;html=1;dashed=1;" vertex="1" parent="1">
          <mxGeometry x="40" y="445" width="110" height="40" as="geometry" />
        </mxCell>
        <mxCell id="BwYgaTEa_GSQwbeDpP3s-17" style="edgeStyle=orthogonalEdgeStyle;rounded=0;orthogonalLoop=1;jettySize=auto;html=1;entryX=1;entryY=0.5;entryDx=0;entryDy=0;dashed=1;" edge="1" parent="1" source="BwYgaTEa_GSQwbeDpP3s-5" target="BwYgaTEa_GSQwbeDpP3s-3">
          <mxGeometry relative="1" as="geometry">
            <Array as="points">
              <mxPoint x="300" y="260" />
              <mxPoint x="300" y="465" />
            </Array>
          </mxGeometry>
        </mxCell>
        <mxCell id="BwYgaTEa_GSQwbeDpP3s-5" value="app_login&lt;div&gt;&lt;br&gt;&lt;/div&gt;" style="ellipse;whiteSpace=wrap;html=1;" vertex="1" parent="1">
          <mxGeometry x="310" y="240" width="110" height="40" as="geometry" />
        </mxCell>
        <mxCell id="BwYgaTEa_GSQwbeDpP3s-18" style="edgeStyle=orthogonalEdgeStyle;rounded=0;orthogonalLoop=1;jettySize=auto;html=1;entryX=1;entryY=0.5;entryDx=0;entryDy=0;dashed=1;" edge="1" parent="1" source="BwYgaTEa_GSQwbeDpP3s-9" target="BwYgaTEa_GSQwbeDpP3s-3">
          <mxGeometry relative="1" as="geometry">
            <Array as="points">
              <mxPoint x="300" y="350" />
              <mxPoint x="300" y="465" />
            </Array>
          </mxGeometry>
        </mxCell>
        <mxCell id="BwYgaTEa_GSQwbeDpP3s-9" value="fetch" style="ellipse;whiteSpace=wrap;html=1;" vertex="1" parent="1">
          <mxGeometry x="310" y="330" width="110" height="40" as="geometry" />
        </mxCell>
        <mxCell id="BwYgaTEa_GSQwbeDpP3s-19" style="edgeStyle=orthogonalEdgeStyle;rounded=0;orthogonalLoop=1;jettySize=auto;html=1;entryX=1;entryY=0.5;entryDx=0;entryDy=0;dashed=1;" edge="1" parent="1" source="BwYgaTEa_GSQwbeDpP3s-10" target="BwYgaTEa_GSQwbeDpP3s-3">
          <mxGeometry relative="1" as="geometry">
            <Array as="points">
              <mxPoint x="300" y="425" />
              <mxPoint x="300" y="465" />
            </Array>
          </mxGeometry>
        </mxCell>
        <mxCell id="BwYgaTEa_GSQwbeDpP3s-25" value="uses" style="edgeLabel;html=1;align=center;verticalAlign=middle;resizable=0;points=[];" vertex="1" connectable="0" parent="BwYgaTEa_GSQwbeDpP3s-19">
          <mxGeometry x="0.4043" y="-2" relative="1" as="geometry">
            <mxPoint as="offset" />
          </mxGeometry>
        </mxCell>
        <mxCell id="BwYgaTEa_GSQwbeDpP3s-10" value="chat CRUD" style="ellipse;whiteSpace=wrap;html=1;" vertex="1" parent="1">
          <mxGeometry x="310" y="405" width="110" height="40" as="geometry" />
        </mxCell>
        <mxCell id="BwYgaTEa_GSQwbeDpP3s-44" style="edgeStyle=orthogonalEdgeStyle;rounded=0;orthogonalLoop=1;jettySize=auto;html=1;entryX=1;entryY=0.5;entryDx=0;entryDy=0;dashed=1;" edge="1" parent="1" source="BwYgaTEa_GSQwbeDpP3s-11" target="BwYgaTEa_GSQwbeDpP3s-3">
          <mxGeometry relative="1" as="geometry">
            <Array as="points">
              <mxPoint x="365" y="465" />
            </Array>
          </mxGeometry>
        </mxCell>
        <mxCell id="BwYgaTEa_GSQwbeDpP3s-11" value="ask question" style="ellipse;whiteSpace=wrap;html=1;" vertex="1" parent="1">
          <mxGeometry x="310" y="480" width="110" height="40" as="geometry" />
        </mxCell>
        <mxCell id="BwYgaTEa_GSQwbeDpP3s-26" style="edgeStyle=orthogonalEdgeStyle;rounded=0;orthogonalLoop=1;jettySize=auto;html=1;entryX=0;entryY=0;entryDx=0;entryDy=15;entryPerimeter=0;" edge="1" parent="1" source="BwYgaTEa_GSQwbeDpP3s-5" target="_1hHCrO5CZwxLzsTIWwX-2">
          <mxGeometry relative="1" as="geometry">
            <Array as="points">
              <mxPoint x="470" y="260" />
              <mxPoint x="470" y="215" />
            </Array>
          </mxGeometry>
        </mxCell>
        <mxCell id="BwYgaTEa_GSQwbeDpP3s-27" style="edgeStyle=orthogonalEdgeStyle;rounded=0;orthogonalLoop=1;jettySize=auto;html=1;entryX=0;entryY=0;entryDx=10;entryDy=0;entryPerimeter=0;" edge="1" parent="1" source="BwYgaTEa_GSQwbeDpP3s-5" target="wIZ43N2knN1_QpdRfwYL-5">
          <mxGeometry relative="1" as="geometry">
            <Array as="points">
              <mxPoint x="470" y="260" />
              <mxPoint x="470" y="290" />
            </Array>
          </mxGeometry>
        </mxCell>
        <mxCell id="BwYgaTEa_GSQwbeDpP3s-31" style="edgeStyle=orthogonalEdgeStyle;rounded=0;orthogonalLoop=1;jettySize=auto;html=1;entryX=0.092;entryY=0.453;entryDx=0;entryDy=0;entryPerimeter=0;" edge="1" parent="1" source="BwYgaTEa_GSQwbeDpP3s-9" target="_1hHCrO5CZwxLzsTIWwX-2">
          <mxGeometry relative="1" as="geometry">
            <Array as="points">
              <mxPoint x="460" y="350" />
              <mxPoint x="460" y="223" />
            </Array>
          </mxGeometry>
        </mxCell>
        <mxCell id="BwYgaTEa_GSQwbeDpP3s-32" style="edgeStyle=orthogonalEdgeStyle;rounded=0;orthogonalLoop=1;jettySize=auto;html=1;entryX=0;entryY=0;entryDx=0;entryDy=15;entryPerimeter=0;" edge="1" parent="1" source="BwYgaTEa_GSQwbeDpP3s-9" target="wIZ43N2knN1_QpdRfwYL-5">
          <mxGeometry relative="1" as="geometry">
            <Array as="points">
              <mxPoint x="460" y="350" />
              <mxPoint x="460" y="305" />
            </Array>
          </mxGeometry>
        </mxCell>
        <mxCell id="BwYgaTEa_GSQwbeDpP3s-33" style="edgeStyle=orthogonalEdgeStyle;rounded=0;orthogonalLoop=1;jettySize=auto;html=1;entryX=0;entryY=0;entryDx=0;entryDy=35;entryPerimeter=0;" edge="1" parent="1" source="BwYgaTEa_GSQwbeDpP3s-10" target="_1hHCrO5CZwxLzsTIWwX-2">
          <mxGeometry relative="1" as="geometry">
            <Array as="points">
              <mxPoint x="450" y="425" />
              <mxPoint x="450" y="235" />
            </Array>
          </mxGeometry>
        </mxCell>
        <mxCell id="BwYgaTEa_GSQwbeDpP3s-34" style="edgeStyle=orthogonalEdgeStyle;rounded=0;orthogonalLoop=1;jettySize=auto;html=1;entryX=0;entryY=0;entryDx=0;entryDy=35;entryPerimeter=0;" edge="1" parent="1" source="BwYgaTEa_GSQwbeDpP3s-10" target="wIZ43N2knN1_QpdRfwYL-5">
          <mxGeometry relative="1" as="geometry">
            <Array as="points">
              <mxPoint x="450" y="425" />
              <mxPoint x="450" y="325" />
            </Array>
          </mxGeometry>
        </mxCell>
        <mxCell id="BwYgaTEa_GSQwbeDpP3s-35" style="edgeStyle=orthogonalEdgeStyle;rounded=0;orthogonalLoop=1;jettySize=auto;html=1;entryX=0;entryY=0;entryDx=0;entryDy=15;entryPerimeter=0;" edge="1" parent="1" source="BwYgaTEa_GSQwbeDpP3s-10" target="_1hHCrO5CZwxLzsTIWwX-1">
          <mxGeometry relative="1" as="geometry" />
        </mxCell>
        <mxCell id="BwYgaTEa_GSQwbeDpP3s-36" style="edgeStyle=orthogonalEdgeStyle;rounded=0;orthogonalLoop=1;jettySize=auto;html=1;entryX=0;entryY=1;entryDx=10;entryDy=0;entryPerimeter=0;" edge="1" parent="1" source="BwYgaTEa_GSQwbeDpP3s-11" target="_1hHCrO5CZwxLzsTIWwX-2">
          <mxGeometry relative="1" as="geometry">
            <Array as="points">
              <mxPoint x="440" y="500" />
              <mxPoint x="440" y="250" />
            </Array>
          </mxGeometry>
        </mxCell>
        <mxCell id="BwYgaTEa_GSQwbeDpP3s-37" style="edgeStyle=orthogonalEdgeStyle;rounded=0;orthogonalLoop=1;jettySize=auto;html=1;entryX=0;entryY=1;entryDx=10;entryDy=0;entryPerimeter=0;" edge="1" parent="1" source="BwYgaTEa_GSQwbeDpP3s-11" target="wIZ43N2knN1_QpdRfwYL-5">
          <mxGeometry relative="1" as="geometry">
            <Array as="points">
              <mxPoint x="440" y="500" />
              <mxPoint x="440" y="340" />
            </Array>
          </mxGeometry>
        </mxCell>
        <mxCell id="BwYgaTEa_GSQwbeDpP3s-38" style="edgeStyle=orthogonalEdgeStyle;rounded=0;orthogonalLoop=1;jettySize=auto;html=1;entryX=0;entryY=0;entryDx=0;entryDy=35;entryPerimeter=0;" edge="1" parent="1" source="BwYgaTEa_GSQwbeDpP3s-11" target="_1hHCrO5CZwxLzsTIWwX-1">
          <mxGeometry relative="1" as="geometry">
            <Array as="points">
              <mxPoint x="440" y="500" />
              <mxPoint x="440" y="420" />
            </Array>
          </mxGeometry>
        </mxCell>
        <mxCell id="BwYgaTEa_GSQwbeDpP3s-39" style="edgeStyle=orthogonalEdgeStyle;rounded=0;orthogonalLoop=1;jettySize=auto;html=1;entryX=0;entryY=1;entryDx=10;entryDy=0;entryPerimeter=0;" edge="1" parent="1" source="BwYgaTEa_GSQwbeDpP3s-11" target="wpWViin_Y6ipoAt1LUYJ-10">
          <mxGeometry relative="1" as="geometry">
            <Array as="points">
              <mxPoint x="440" y="500" />
              <mxPoint x="440" y="530" />
            </Array>
          </mxGeometry>
        </mxCell>
        <mxCell id="BwYgaTEa_GSQwbeDpP3s-40" style="edgeStyle=orthogonalEdgeStyle;rounded=0;orthogonalLoop=1;jettySize=auto;html=1;entryX=0;entryY=0;entryDx=0;entryDy=35;entryPerimeter=0;" edge="1" parent="1" source="BwYgaTEa_GSQwbeDpP3s-10" target="wpWViin_Y6ipoAt1LUYJ-10">
          <mxGeometry relative="1" as="geometry" />
        </mxCell>
        <mxCell id="BwYgaTEa_GSQwbeDpP3s-41" style="edgeStyle=orthogonalEdgeStyle;rounded=0;orthogonalLoop=1;jettySize=auto;html=1;entryX=0;entryY=0;entryDx=0;entryDy=15;entryPerimeter=0;" edge="1" parent="1" source="BwYgaTEa_GSQwbeDpP3s-9" target="wpWViin_Y6ipoAt1LUYJ-10">
          <mxGeometry relative="1" as="geometry">
            <Array as="points">
              <mxPoint x="460" y="350" />
              <mxPoint x="460" y="495" />
            </Array>
          </mxGeometry>
        </mxCell>
        <mxCell id="BwYgaTEa_GSQwbeDpP3s-42" style="edgeStyle=orthogonalEdgeStyle;rounded=0;orthogonalLoop=1;jettySize=auto;html=1;entryX=0;entryY=0;entryDx=10;entryDy=0;entryPerimeter=0;" edge="1" parent="1" source="BwYgaTEa_GSQwbeDpP3s-5" target="wpWViin_Y6ipoAt1LUYJ-10">
          <mxGeometry relative="1" as="geometry">
            <Array as="points">
              <mxPoint x="470" y="260" />
              <mxPoint x="470" y="480" />
            </Array>
          </mxGeometry>
        </mxCell>
        <mxCell id="BwYgaTEa_GSQwbeDpP3s-43" value="axum lib" style="shape=module;align=left;spacingLeft=20;align=center;verticalAlign=top;whiteSpace=wrap;html=1;" vertex="1" parent="1">
          <mxGeometry x="130" y="500" width="110" height="40" as="geometry" />
        </mxCell>
        <mxCell id="BwYgaTEa_GSQwbeDpP3s-45" style="edgeStyle=orthogonalEdgeStyle;rounded=0;orthogonalLoop=1;jettySize=auto;html=1;entryX=0;entryY=0;entryDx=0;entryDy=15;entryPerimeter=0;" edge="1" parent="1" source="BwYgaTEa_GSQwbeDpP3s-3" target="BwYgaTEa_GSQwbeDpP3s-43">
          <mxGeometry relative="1" as="geometry" />
        </mxCell>
      </root>
    </mxGraphModel>
  </diagram>
</mxfile>
